<svg xmlns="http://www.w3.org/2000/svg" viewBox="0 0 512 512" role="img" aria-label="HonduRaite">
  <defs>
    <linearGradient id="bg" x1="0%" y1="0%" x2="100%" y2="100%">
      <stop offset="0%" stop-color="#3b82f6"/>
      <stop offset="50%" stop-color="#2563eb"/>
      <stop offset="100%" stop-color="#0284c7"/>
    </linearGradient>
    <linearGradient id="pin" x1="0%" y1="0%" x2="0%" y2="100%">
      <stop offset="0%" stop-color="#ffffff"/>
      <stop offset="100%" stop-color="#e0f2fe"/>
    </linearGradient>
    <filter id="shadow" x="-20%" y="-20%" width="140%" height="140%">
      <feDropShadow dx="0" dy="10" stdDeviation="14" flood-color="#0c1e4a" flood-opacity="0.35"/>
    </filter>
  </defs>
  <rect width="512" height="512" rx="116" fill="url(#bg)"/>
  <circle cx="256" cy="256" r="188" fill="#ffffff" opacity="0.06"/>
  <circle cx="256" cy="256" r="132" fill="#ffffff" opacity="0.05"/>
  <path d="M120 300 Q256 170 392 300" fill="none" stroke="#ffffff" stroke-width="18" stroke-linecap="round" opacity="0.22"/>
  <path d="M156 318 Q256 220 356 318" fill="none" stroke="#7dd3fc" stroke-width="10" stroke-linecap="round" opacity="0.45"/>
  <g filter="url(#shadow)">
    <path fill="url(#pin)" d="M256 108c-58 0-104 46-104 104 0 78 104 182 104 182s104-104 104-182c0-58-46-104-104-104z"/>
    <circle cx="256" cy="212" r="44" fill="#2563eb"/>
    <circle cx="256" cy="212" r="20" fill="#ffffff"/>
  </g>
</svg>